<mxfile host="app.diagrams.net" modified="2023-06-21T10:40:42.175Z" agent="Mozilla/5.0 (X11; Linux x86_64; rv:109.0) Gecko/20100101 Firefox/114.0" etag="4dCOf1Bx7MlwIDo6_Sdv" version="21.5.0">
  <diagram name="Page-1" id="8FRpXJnR-P_6Mu9A4L2G">
    <mxGraphModel dx="2437" dy="886" grid="1" gridSize="10" guides="1" tooltips="1" connect="1" arrows="1" fold="1" page="1" pageScale="1" pageWidth="850" pageHeight="1100" math="0" shadow="0">
      <root>
        <mxCell id="0" />
        <mxCell id="1" parent="0" />
        <mxCell id="ZVM27dHLaGGcp62J2ybX-13" value="" style="endArrow=none;html=1;rounded=0;strokeWidth=4;strokeColor=#FF0000;" parent="1" source="ZVM27dHLaGGcp62J2ybX-9" edge="1">
          <mxGeometry width="50" height="50" relative="1" as="geometry">
            <mxPoint x="490" y="395" as="sourcePoint" />
            <mxPoint x="490" y="415.71067811865476" as="targetPoint" />
          </mxGeometry>
        </mxCell>
        <mxCell id="ZVM27dHLaGGcp62J2ybX-11" value="" style="rounded=0;whiteSpace=wrap;html=1;rotation=15;fillColor=#000000;" parent="1" vertex="1">
          <mxGeometry x="200" y="380" width="350" height="10" as="geometry" />
        </mxCell>
        <mxCell id="ZVM27dHLaGGcp62J2ybX-9" value="" style="rounded=0;whiteSpace=wrap;html=1;fillColor=#0050ef;fontColor=#ffffff;strokeColor=#001DBC;" parent="1" vertex="1">
          <mxGeometry x="445" y="195" width="90" height="150" as="geometry" />
        </mxCell>
        <mxCell id="ZVM27dHLaGGcp62J2ybX-2" value="" style="rounded=0;whiteSpace=wrap;html=1;fillColor=#dae8fc;strokeColor=#6c8ebf;" parent="1" vertex="1">
          <mxGeometry x="200" y="195" width="90" height="150" as="geometry" />
        </mxCell>
        <mxCell id="ZVM27dHLaGGcp62J2ybX-1" value="" style="rounded=0;whiteSpace=wrap;html=1;fillColor=#9a9996;" parent="1" vertex="1">
          <mxGeometry x="60" y="240" width="250" height="60" as="geometry" />
        </mxCell>
        <mxCell id="ZVM27dHLaGGcp62J2ybX-4" value="" style="rounded=0;whiteSpace=wrap;html=1;fillColor=#999999;" parent="1" vertex="1">
          <mxGeometry x="425" y="240" width="250" height="60" as="geometry" />
        </mxCell>
        <mxCell id="ZVM27dHLaGGcp62J2ybX-7" value="" style="rounded=0;whiteSpace=wrap;html=1;fillColor=#000000;" parent="1" vertex="1">
          <mxGeometry x="10" y="172.5" width="120" height="195" as="geometry" />
        </mxCell>
        <mxCell id="ZVM27dHLaGGcp62J2ybX-10" value="" style="rounded=0;whiteSpace=wrap;html=1;fillColor=#000000;" parent="1" vertex="1">
          <mxGeometry x="585" y="172.5" width="120" height="195" as="geometry" />
        </mxCell>
        <mxCell id="ZVM27dHLaGGcp62J2ybX-16" value="&lt;font style=&quot;font-size: 45px;&quot;&gt;1A&lt;/font&gt;" style="ellipse;whiteSpace=wrap;html=1;aspect=fixed;strokeWidth=4;" parent="1" vertex="1">
          <mxGeometry x="30" y="180" width="70" height="70" as="geometry" />
        </mxCell>
        <mxCell id="ZVM27dHLaGGcp62J2ybX-18" value="&lt;font style=&quot;font-size: 45px;&quot;&gt;1B&lt;/font&gt;" style="ellipse;whiteSpace=wrap;html=1;aspect=fixed;strokeWidth=4;" parent="1" vertex="1">
          <mxGeometry x="610" y="180" width="70" height="70" as="geometry" />
        </mxCell>
        <mxCell id="ZVM27dHLaGGcp62J2ybX-19" value="&lt;font style=&quot;font-size: 45px;&quot;&gt;4A&lt;/font&gt;" style="ellipse;whiteSpace=wrap;html=1;aspect=fixed;strokeWidth=4;" parent="1" vertex="1">
          <mxGeometry x="-140" y="145" width="70" height="70" as="geometry" />
        </mxCell>
        <mxCell id="ZVM27dHLaGGcp62J2ybX-20" value="&lt;font style=&quot;font-size: 45px;&quot;&gt;2&lt;/font&gt;" style="ellipse;whiteSpace=wrap;html=1;aspect=fixed;strokeWidth=4;" parent="1" vertex="1">
          <mxGeometry x="350" y="440" width="70" height="70" as="geometry" />
        </mxCell>
        <mxCell id="ZVM27dHLaGGcp62J2ybX-21" value="" style="endArrow=none;dashed=1;html=1;dashPattern=1 3;strokeWidth=3;rounded=0;" parent="1" edge="1">
          <mxGeometry width="50" height="50" relative="1" as="geometry">
            <mxPoint x="400" y="450" as="sourcePoint" />
            <mxPoint x="450" y="400" as="targetPoint" />
          </mxGeometry>
        </mxCell>
        <mxCell id="ZVM27dHLaGGcp62J2ybX-22" value="&lt;font style=&quot;font-size: 45px;&quot;&gt;3&lt;/font&gt;" style="ellipse;whiteSpace=wrap;html=1;aspect=fixed;strokeWidth=4;" parent="1" vertex="1">
          <mxGeometry x="610" y="450" width="70" height="70" as="geometry" />
        </mxCell>
        <mxCell id="ZVM27dHLaGGcp62J2ybX-23" value="" style="endArrow=none;dashed=1;html=1;dashPattern=1 3;strokeWidth=3;rounded=0;entryX=0;entryY=0;entryDx=0;entryDy=0;" parent="1" edge="1" target="ZVM27dHLaGGcp62J2ybX-22">
          <mxGeometry width="50" height="50" relative="1" as="geometry">
            <mxPoint x="500" y="380" as="sourcePoint" />
            <mxPoint x="635" y="440" as="targetPoint" />
          </mxGeometry>
        </mxCell>
        <mxCell id="ZVM27dHLaGGcp62J2ybX-25" value="&lt;font style=&quot;font-size: 45px;&quot;&gt;4B&lt;/font&gt;" style="ellipse;whiteSpace=wrap;html=1;aspect=fixed;strokeWidth=4;" parent="1" vertex="1">
          <mxGeometry x="760" y="125" width="70" height="70" as="geometry" />
        </mxCell>
        <mxCell id="cLFatFqsTeVUqAclV-bf-6" value="" style="endArrow=none;html=1;rounded=0;dashed=1;dashPattern=1 1;strokeWidth=6;fillColor=#0050ef;strokeColor=#001DBC;" edge="1" parent="1">
          <mxGeometry width="50" height="50" relative="1" as="geometry">
            <mxPoint x="850" y="270" as="sourcePoint" />
            <mxPoint x="-160" y="270" as="targetPoint" />
          </mxGeometry>
        </mxCell>
        <mxCell id="cLFatFqsTeVUqAclV-bf-8" value="" style="html=1;shadow=0;dashed=0;align=center;verticalAlign=middle;shape=mxgraph.arrows2.uTurnArrow;dy=11;arrowHead=43;dx2=31.25;strokeWidth=3;" vertex="1" parent="1">
          <mxGeometry x="-110" y="215" width="60" height="110" as="geometry" />
        </mxCell>
        <mxCell id="cLFatFqsTeVUqAclV-bf-9" value="&lt;font style=&quot;font-size: 45px;&quot;&gt;5&lt;/font&gt;" style="ellipse;whiteSpace=wrap;html=1;aspect=fixed;strokeWidth=4;" vertex="1" parent="1">
          <mxGeometry x="330" y="40" width="70" height="70" as="geometry" />
        </mxCell>
        <mxCell id="cLFatFqsTeVUqAclV-bf-5" value="" style="html=1;shadow=0;dashed=0;align=center;verticalAlign=middle;shape=mxgraph.arrows2.uTurnArrow;dy=11;arrowHead=43;dx2=31.25;strokeWidth=3;" vertex="1" parent="1">
          <mxGeometry x="750" y="210" width="60" height="110" as="geometry" />
        </mxCell>
        <mxCell id="cLFatFqsTeVUqAclV-bf-10" value="" style="endArrow=none;dashed=1;html=1;dashPattern=1 3;strokeWidth=3;rounded=0;exitX=0.5;exitY=1;exitDx=0;exitDy=0;" edge="1" parent="1" source="cLFatFqsTeVUqAclV-bf-9">
          <mxGeometry width="50" height="50" relative="1" as="geometry">
            <mxPoint x="270" y="160" as="sourcePoint" />
            <mxPoint x="365" y="270" as="targetPoint" />
          </mxGeometry>
        </mxCell>
      </root>
    </mxGraphModel>
  </diagram>
</mxfile>
